<svg xmlns="http://www.w3.org/2000/svg" width="17" height="16" viewBox="0 0 17 16" fill="none">
<path fill-rule="evenodd" clip-rule="evenodd" d="M6.22804 2.11193C6.81975 1.43144 7.69297 1 8.667 1C9.64097 1 10.5142 1.4314 11.1058 2.11183C12.0056 2.04897 12.9281 2.36135 13.617 3.05016C14.3058 3.73897 14.6182 4.6616 14.5553 5.56126C15.2356 6.15297 15.667 7.02609 15.667 7.99999C15.667 8.97409 15.2355 9.84735 14.555 10.4391C14.6176 11.3386 14.3053 12.261 13.6165 12.9498C12.9279 13.6384 12.0054 13.9508 11.1059 13.8881C10.5142 14.5685 9.64102 15 8.667 15C7.69303 15 6.81986 14.5686 6.22815 13.8882C5.32848 13.9511 4.40582 13.6387 3.71701 12.9499C3.02819 12.261 2.71581 11.3385 2.77867 10.4387C2.09832 9.84702 1.66699 8.97391 1.66699 7.99999C1.66699 7.02604 2.09837 6.15288 2.77878 5.56117C2.71599 4.66158 3.02837 3.73903 3.71712 3.05028C4.40588 2.36152 5.32843 2.04914 6.22804 2.11193ZM11.259 6.69759C11.4319 6.4556 11.3758 6.1193 11.1338 5.94645C10.8918 5.7736 10.5555 5.82965 10.3827 6.07164L8.05982 9.32364L6.8939 8.15771C6.68361 7.94743 6.34268 7.94743 6.13239 8.15771C5.92212 8.368 5.92212 8.70893 6.13239 8.91921L7.74779 10.5346C7.85971 10.6466 8.01521 10.7035 8.17295 10.6905C8.33069 10.6774 8.47469 10.5956 8.5667 10.4668L11.259 6.69759Z" fill="#51BAFF"/>
</svg>